<?xml version="1.0" encoding="utf-8"?>
<!-- Generator: Adobe Illustrator 17.0.0, SVG Export Plug-In . SVG Version: 6.00 Build 0)  -->
<!DOCTYPE svg PUBLIC "-//W3C//DTD SVG 1.1//EN" "http://www.w3.org/Graphics/SVG/1.1/DTD/svg11.dtd">
<svg version="1.1" id="Layer_1" xmlns="http://www.w3.org/2000/svg" xmlns:xlink="http://www.w3.org/1999/xlink" x="0px" y="0px"
	 width="87px" height="87px" viewBox="0 0 87 87" enable-background="new 0 0 87 87" xml:space="preserve">
<path fill="#FFFFFF" d="M65.3,45.3c0,17.6-5.6,32-12.7,33.6C53,79,53.5,79,53.9,79c7.8,0,14-15.1,14-33.8s-6.3-33.8-14-33.8
	c-0.4,0-0.9,0.1-1.3,0.2C59.7,13.3,65.3,27.7,65.3,45.3z"/>
<path fill="#FFFFFF" d="M34.3,11.5c-0.4,0-0.9,0.1-1.3,0.2c-7.1,1.6-12.7,16-12.7,33.6c0,14.2,3.6,26.4,8.8,31.3
	c-1.1,0.2-2,0-2.7-0.4c-1.8-1.2-2-4.1-2-4.2l-0.8,0h0l-0.8,0c0,0.2,0.2,3.9,2.7,5.5c0.8,0.5,1.7,0.8,2.7,0.8c0.8,0,1.6-0.1,2.5-0.4
	c0.8,0.5,1.5,0.8,2.3,1c0.4,0.1,0.9,0.2,1.3,0.2c7.8,0,14-15.1,14-33.8S42.1,11.5,34.3,11.5z M34.3,53.9c-0.1,0-0.2,0-0.3,0
	c-1.8-0.4-3.3-4.1-3.3-8.6s1.4-8.2,3.3-8.6c0.1,0,0.2,0,0.3,0c2,0,3.6,3.9,3.6,8.7S36.3,53.9,34.3,53.9z"/>
<g>
	<path fill="#FFFFFF" d="M49.9,45.3c0,17.2-4.9,31.3-11.2,32.7c0.3,0.1,0.7,0.1,1,0.1c6.8,0,12.2-14.7,12.2-32.8
		s-5.5-32.8-12.2-32.8c-0.3,0-0.7,0-1,0.1C44.9,14,49.9,28.1,49.9,45.3z"/>
</g>
<g>
	<path fill="#FFFFFF" d="M53.7,45.3c0,17.2-4.9,31.3-11.2,32.7c0.3,0.1,0.7,0.1,1,0.1c6.8,0,12.2-14.7,12.2-32.8
		s-5.5-32.8-12.2-32.8c-0.3,0-0.7,0-1,0.1C48.8,14,53.7,28.1,53.7,45.3z"/>
</g>
<g>
	<path fill="#FFFFFF" d="M57.4,45.3c0,17.2-4.9,31.3-11.2,32.7c0.3,0.1,0.7,0.1,1,0.1c6.8,0,12.2-14.7,12.2-32.8
		s-5.5-32.8-12.2-32.8c-0.3,0-0.7,0-1,0.1C52.4,14,57.4,28.1,57.4,45.3z"/>
</g>
<g>
	<path fill="#FFFFFF" d="M61.2,45.3c0,17.2-4.9,31.3-11.2,32.7c0.3,0.1,0.7,0.1,1,0.1c6.8,0,12.2-14.7,12.2-32.8S57.7,12.5,51,12.5
		c-0.3,0-0.7,0-1,0.1C56.3,14,61.2,28.1,61.2,45.3z"/>
</g>
<g>
	<polygon fill="#FFFFFF" points="24.3,72 24.3,72 23.5,72 	"/>
</g>
</svg>
