<?xml version="1.0" encoding="utf-8"?>
<!-- Generator: Adobe Illustrator 17.0.0, SVG Export Plug-In . SVG Version: 6.00 Build 0)  -->
<!DOCTYPE svg PUBLIC "-//W3C//DTD SVG 1.1//EN" "http://www.w3.org/Graphics/SVG/1.1/DTD/svg11.dtd">
<svg version="1.1" id="Layer_1" xmlns="http://www.w3.org/2000/svg" xmlns:xlink="http://www.w3.org/1999/xlink" x="0px" y="0px"
	 width="87px" height="87px" viewBox="0 0 87 87" enable-background="new 0 0 87 87" xml:space="preserve">
<polygon fill="#FFFFFF" points="43.4,54.1 41,52.8 41,52.8 "/>
<path fill="#FFFFFF" d="M82.9,11.6H3.7c-1,0-1.7,0.8-1.7,1.7v61.9c0,1,0.8,1.7,1.7,1.7h79.2c1,0,1.7-0.8,1.7-1.7V13.4
	C84.6,12.4,83.9,11.6,82.9,11.6z M60.7,63.2v-0.9c0-1,0.8-1.7,1.7-1.7h13.2c1,0,1.7,0.8,1.7,1.7v0.9c0,1-0.8,1.7-1.7,1.7H62.5
	C61.5,64.9,60.7,64.1,60.7,63.2z M7,18.5c0-1,0.8-1.7,1.7-1.7h6.7c0,0.1-0.1,0.3-0.1,0.5v3.3c0,1,0.8,1.7,1.7,1.7h3l0.9,2.4h1.3
	l0.9-2.4h2.9c1,0,1.7-0.8,1.7-1.7v-3.3c0-0.2,0-0.3-0.1-0.5H78c1,0,1.7,0.8,1.7,1.7v38.3H58.1c-1.2,0-2.2,0.8-2.2,1.7v4.6
	c0,1-1,1.7-2.2,1.7H8.8c-1,0-1.7-0.8-1.7-1.7V18.5z"/>
<g>
	<path fill="#FFFFFF" d="M56.6,34.7l0-1.4l-6.4-3.7l-5.1-2.9l0,0l-1.3-0.8l-1.3,0.8l0,0l-10.3,5.9l-1.3,0.7l0,1.4l0,11.9v0l0,1.4
		l1.2,0.7l2.3,1.3l0.8,0.4l1.6,0.9l2.3,1.3l0.4,0.2l2,1.1l2.3,1.3l0,0l1.3-0.8L56.6,48L56.6,34.7z M41.4,51.3L41.4,51.3l-2.3-1.3
		l-2.3-1.3l-2.3-1.3l-1.1-0.6V36.3l9.1,5.2l0,10.4L41.4,51.3z M43.7,39.2l-0.1,0.1l-4.7-2.7L34.6,34l9.1-5.2l0,0l9.1,5.1L43.7,39.2z
		"/>
</g>
</svg>
