<?xml version="1.0" encoding="utf-8"?>
<!-- Generator: Adobe Illustrator 17.0.0, SVG Export Plug-In . SVG Version: 6.00 Build 0)  -->
<!DOCTYPE svg PUBLIC "-//W3C//DTD SVG 1.1//EN" "http://www.w3.org/Graphics/SVG/1.1/DTD/svg11.dtd">
<svg version="1.1" id="Layer_1" xmlns="http://www.w3.org/2000/svg" xmlns:xlink="http://www.w3.org/1999/xlink" x="0px" y="0px"
	 width="60px" height="60px" viewBox="0 0 60 60" enable-background="new 0 0 60 60" xml:space="preserve">
<g>
	<polygon fill="#FFFFFF" points="7,16.6 7,43.4 11.7,46 11.7,40.8 16.3,43.5 16.3,48.7 21,51.3 21,46.1 25.7,48.8 25.7,54 
		30.3,56.6 30.3,30 43.2,22.6 53.6,16.6 30.3,3.5 	"/>
	<path fill="#F04C23" d="M43.2,7.8L33,1.9l-2.7-1.5l-2.7,1.5L4.5,15.2l0,26.7l0,2.9L7,46.2l4.7,2.7l1.5,0.9l3.1,1.8l4.7,2.7l0.7,0.4
		l3.9,2.3l4.7,2.7l0,0l25.8-14.8l0-29.6L43.2,7.8z M43.2,22.6L30.3,30v26.6L25.7,54l0-5.2L21,46.1l0,5.2l-4.7-2.7l0-5.2l-4.7-2.7
		l0,5.2L7,43.4V16.6L30.3,3.5l23.3,13.2L43.2,22.6z"/>
</g>
</svg>
