<?xml version="1.0" encoding="utf-8"?>
<!-- Generator: Adobe Illustrator 17.0.0, SVG Export Plug-In . SVG Version: 6.00 Build 0)  -->
<!DOCTYPE svg PUBLIC "-//W3C//DTD SVG 1.1//EN" "http://www.w3.org/Graphics/SVG/1.1/DTD/svg11.dtd">
<svg version="1.1" id="Layer_1" xmlns="http://www.w3.org/2000/svg" xmlns:xlink="http://www.w3.org/1999/xlink" x="0px" y="0px"
	 width="60px" height="60px" viewBox="0 0 60 60" enable-background="new 0 0 60 60" xml:space="preserve">
<path fill="#FFFFFF" d="M56.1,15.2L43.2,7.8L33,1.9l-2.7-1.5l-2.7,1.5L4.5,15.2l0,26.7l0,2.9L7,46.2l4.7,2.7l1.5,0.9l3.1,1.8
	l4.7,2.7l0.7,0.4l3.9,2.3l4.7,2.7l0,0l25.8-14.8L56.1,15.2z M43.2,22.6L30.3,30v26.6L25.7,54l0-5.2L21,46.1l0,5.2l-4.7-2.7l0-5.2
	l-4.7-2.7l0,5.2L7,43.4V16.6L30.3,3.5l23.3,13.2L43.2,22.6z"/>
<path fill="#0D0F21" d="M15.1,14.9"/>
<path fill="#0D0F21" d="M30,8.2"/>
</svg>
